<?xml version="1.0" encoding="utf-8"?>
<!-- Generator: Adobe Illustrator 19.1.0, SVG Export Plug-In . SVG Version: 6.00 Build 0)  -->
<svg version="1.0" id="Layer_1" xmlns="http://www.w3.org/2000/svg" xmlns:xlink="http://www.w3.org/1999/xlink" x="0px" y="0px"
	 viewBox="0 0 141.6 141.8" style="enable-background:new 0 0 141.6 141.8;" xml:space="preserve">
<style type="text/css">
	.st0{fill:#372B31;}
	.st1{fill:#F15B4B;}
	.st2{fill:#7C92CA;}
	.st3{fill:#FFFFFF;}
</style>
<g>
	<path class="st0" d="M80.8,63.8c-3.4,0-6.3,2.7-6.3,6.6c0,3.9,2.9,6.6,6.3,6.6c3.4,0,6.3-2.7,6.3-6.6
		C87.1,66.5,84.3,63.8,80.8,63.8z"/>
	<path class="st0" d="M54.9,63.7c-3.4,0-6.3,2.7-6.3,6.6c0,3.9,2.9,6.6,6.3,6.6c3.4,0,6.3-2.7,6.3-6.6
		C61.2,66.4,58.4,63.7,54.9,63.7z"/>
	<path class="st0" d="M70.8,1C32.5,1,1.5,32,1.5,70.3c0,38.3,31,69.3,69.3,69.3s69.3-31,69.3-69.3C140.1,32,109.1,1,70.8,1z
		 M30.6,80.9h-3.9c-1.8,0-2.5-0.3-3.3-1.8l-3.5-6.6c-0.4-0.7-1.3-0.8-2-0.8h-1.2v9.3h-5.3V60.4c0-0.6-0.3-0.9-0.9-0.9H8.9v-4.5h5
		c1.9,0,2.8,0.5,2.8,2.4v9.8h1.6c0.7,0,1.5-0.1,2-0.8l4.3-6.7h5.8l-5.4,8c-0.9,1.3-1.6,1.7-1.6,1.7v0.1c0,0,0.7,0.3,1.5,1.7l2.4,4.6
		c0.3,0.6,0.7,0.8,1.7,0.8h1.4V80.9z M54.9,81.4c-6.4,0-11.6-4.6-11.6-11.1c0-2.1,0.6-4,1.5-5.6c-0.2,0-0.6,0-0.9,0
		c-2.2,0-4.8,1.3-5.8,4.4c-0.3,1-0.5,2.2-0.5,3.4v8.4h-5.2V65.2c0-0.6-0.3-0.9-0.9-0.9l-1.7,0l3-4.5l1.9,0c1.9,0,2.8,0.8,2.8,2.6
		v1.2c0,0.8-0.1,1.3-0.1,1.3h0.1c1-3,3.5-5.4,6.7-5.4c0.5,0,9.9-0.2,9.9-0.2l0,0c0.3,0,0.6,0,0.8,0c6.5,0,11.6,4.6,11.6,11.1
		C66.5,76.9,61.4,81.4,54.9,81.4z M80.8,81.4c-2.7,0-5.1-0.8-7.1-2.2l0,6.4h-5.2l0-20.5c0-0.6-0.3-0.9-0.9-0.9l-1.7,0l3-4.5l1.9,0
		c1.6,0,2.5,0.6,2.7,1.9c2-1.5,4.5-2.4,7.3-2.4c6.5,0,11.6,4.6,11.6,11.1C92.4,76.9,87.3,81.4,80.8,81.4z M128,80.9
		c-2,0-2.7-1.1-2.7-2.3c0-0.5,0-0.9,0-0.9h-0.1c0,0-1.6,3.7-6.4,3.7c-1,0-2-0.2-2.9-0.5h-6.7c-1.8,0-2.5-0.3-3.3-1.8l-3.5-6.6
		c-0.4-0.7-1.3-0.8-1.9-0.8h-1.2v9.3H94V60.4c0-0.6-0.3-0.9-0.9-0.9h-1.7v-4.5h5c2,0,2.8,0.5,2.8,2.4v9.8h1.6c0.7,0,1.5-0.1,2-0.8
		l4.3-6.7h5.8l-5.4,8c-0.9,1.3-1.6,1.7-1.6,1.7v0.1c0,0,0.7,0.3,1.5,1.7l2.4,4.6c0.3,0.6,0.7,0.8,1.7,0.8h0.1
		c-0.1-0.5-0.2-1.1-0.2-1.7c0-6.6,9.1-7.2,12.6-7.2h0.7v-0.2c0-3-1.2-4.1-3.9-4.1c-1,0-2.8,0.2-2.8,1.4v1.1h-4.9v-2.2
		c0-3.9,5.6-4.4,7.8-4.4c7.1,0,9.1,3.7,9.1,8.4v7.9c0,0.6,0.3,0.9,0.9,0.9h1.7v4.4H128z"/>
	<path class="st0" d="M116.9,74.6c0,1.4,1,2.7,3.2,2.7c2.8,0,4.8-3,4.8-5.6v-0.5H124C121.3,71.3,116.9,71.6,116.9,74.6z"/>
</g>
<circle class="st1" cx="33.1" cy="184.4" r="21.2"/>
<circle class="st0" cx="83.9" cy="184.4" r="21.2"/>
<g>
	<g>
		<path class="st2" d="M-131.3,65.4c-13.5,0-24.4,10.8-24.7,24.2h-4.1c1.6,14.2,13.6,25.2,28.2,25.2c0.1,0,0.2,0,0.3,0
			c0.1,0,0.2,0,0.3,0c13.7,0,24.7-11.1,24.7-24.7C-106.6,76.5-117.7,65.4-131.3,65.4z"/>
	</g>
	<g>
		<path class="st3" d="M-132.5,84.5c0.6-1.9,1.7-1.9,2.3,0c0.6,1.9,2.8,3.5,4.8,3.5c2,0,2.3,1,0.7,2.2c-1.6,1.2-2.5,3.7-1.8,5.7
			c0.6,1.9-0.2,2.5-1.8,1.3c-1.6-1.2-4.3-1.2-6,0c-1.6,1.2-2.5,0.6-1.8-1.3c0.6-1.9-0.2-4.5-1.8-5.7c-1.6-1.2-1.3-2.2,0.7-2.2
			C-135.3,88-133.1,86.4-132.5,84.5z"/>
	</g>
</g>
</svg>
