<?xml version="1.0" encoding="utf-8"?>
<!-- Generator: Adobe Illustrator 19.1.0, SVG Export Plug-In . SVG Version: 6.00 Build 0)  -->
<svg version="1.0" id="Icons" xmlns="http://www.w3.org/2000/svg" xmlns:xlink="http://www.w3.org/1999/xlink" x="0px" y="0px"
	 viewBox="0 0 113.4 113.4" style="enable-background:new 0 0 113.4 113.4;" xml:space="preserve">
<style type="text/css">
	.st0{fill:#FFFFFF;}
</style>
<g>
	<path class="st0" d="M-308.3,55.1c-0.4,0.2-0.6,0.5-0.6,0.9c0,0.4,0.2,0.8,0.6,0.9l20.9,8.4l36.8-34.1L-308.3,55.1z"/>
	<path class="st0" d="M-286.7,67.5V85c0,0.4,0.3,0.8,0.7,1c0.1,0,0.2,0,0.3,0c0.3,0,0.7-0.2,0.9-0.5l8.6-14.3l15.7,8.4
		c0.1,0.1,0.3,0.1,0.5,0.1c0.1,0,0.3,0,0.4-0.1c0.3-0.1,0.5-0.4,0.6-0.7l10.4-46.7L-286.7,67.5z"/>
</g>
<path class="st0" d="M-276.8,3.5c-29.3,0-53.2,23.9-53.2,53.2c0,29.3,23.9,53.2,53.2,53.2s53.2-23.9,53.2-53.2
	C-223.6,27.4-247.5,3.5-276.8,3.5z M-276.8,102.8c-25.4,0-46.1-20.7-46.1-46.1c0-25.4,20.7-46.1,46.1-46.1
	c25.4,0,46.1,20.7,46.1,46.1C-230.7,82.1-251.4,102.8-276.8,102.8z"/>
<path class="st0" d="M-111.3,3.5c-29.3,0-53.2,23.9-53.2,53.2c0,29.3,23.9,53.2,53.2,53.2S-58.1,86-58.1,56.7
	C-58.1,27.4-82,3.5-111.3,3.5z M-111.3,102.8c-25.4,0-46.1-20.7-46.1-46.1c0-25.4,20.7-46.1,46.1-46.1s46.1,20.7,46.1,46.1
	C-65.2,82.1-85.9,102.8-111.3,102.8z"/>
<path class="st0" d="M56.7,3.5C27.4,3.5,3.5,27.4,3.5,56.7c0,29.3,23.9,53.2,53.2,53.2s53.2-23.9,53.2-53.2
	C109.9,27.4,86,3.5,56.7,3.5z M56.7,102.8c-25.4,0-46.1-20.7-46.1-46.1c0-25.4,20.7-46.1,46.1-46.1s46.1,20.7,46.1,46.1
	C102.8,82.1,82.1,102.8,56.7,102.8z"/>
<path class="st0" d="M-89,47.7c0,0.5,0,1,0,1.5c0,15.2-11.6,32.7-32.7,32.7c-6.5,0-12.5-1.9-17.6-5.2c0.9,0.1,1.8,0.2,2.7,0.2
	c5.4,0,10.3-1.8,14.3-4.9c-5-0.1-9.3-3.4-10.7-8c0.7,0.1,1.4,0.2,2.2,0.2c1,0,2.1-0.1,3-0.4c-5.3-1.1-9.2-5.7-9.2-11.3
	c0,0,0-0.1,0-0.1c1.5,0.9,3.3,1.4,5.2,1.4c-3.1-2.1-5.1-5.6-5.1-9.6c0-2.1,0.6-4.1,1.6-5.8c5.7,7,14.1,11.5,23.7,12
	c-0.2-0.8-0.3-1.7-0.3-2.6c0-6.3,5.1-11.5,11.5-11.5c3.3,0,6.3,1.4,8.4,3.6c2.6-0.5,5.1-1.5,7.3-2.8c-0.9,2.7-2.7,4.9-5.1,6.4
	c2.3-0.3,4.5-0.9,6.6-1.8C-84.8,44.1-86.8,46.1-89,47.7z"/>
<rect x="33.5" y="45.2" class="st0" width="10.6" height="31.9"/>
<path class="st0" d="M38.9,40.7L38.9,40.7c-3.6,0-6-2.3-6-5.4c0-3.1,2.4-5.5,6-5.5c3.6,0,5.9,2.3,5.9,5.4
	C44.9,38.3,42.6,40.7,38.9,40.7z"/>
<path class="st0" d="M82.4,77.1H71.8V60.2c0-4.3-1.5-7.2-5.3-7.2c-2.9,0-4.8,2-5.6,3.9c-0.3,0.7-0.5,1.6-0.5,2.6v17.7H50.1
	c0,0,0.1-28.8,0-31.9h10.3v4.6c1.5-2.2,4-5.3,9.7-5.3c7,0,12.3,4.6,12.3,14.4V77.1z"/>
</svg>
